<svg width="9952" height="2000" viewBox="0 0 9952 2000" fill="none" xmlns="http://www.w3.org/2000/svg">
<g clip-path="url(#clip0_14_37)">
<g filter="url(#filter0_d_14_37)">
<rect x="47" y="400" width="1903" height="1264" rx="61" fill="url(#paint0_linear_14_37)"/>
</g>
<circle cx="1543" cy="665" r="140" fill="#D4D8E9"/>
<mask id="mask0_14_37" style="mask-type:alpha" maskUnits="userSpaceOnUse" x="47" y="400" width="1903" height="1264">
<rect x="47" y="400" width="1903" height="1264" rx="61" fill="white"/>
</mask>
<g mask="url(#mask0_14_37)">
<g filter="url(#filter1_d_14_37)">
<path d="M881.123 1158.4L983.717 1063.38C1032.61 1018.09 1057.06 995.449 1084.55 987.667C1108.73 980.822 1134.46 981.808 1158.04 990.483C1184.85 1000.35 1207.5 1024.79 1252.79 1073.69L1835.28 1702.6L1593 1927L881.123 1158.4Z" fill="#124FC0"/>
</g>
<g filter="url(#filter2_d_14_37)">
<path d="M-173.528 1464.84L460.562 877.548C500.829 840.253 520.962 821.605 543.601 815.197C563.514 809.56 584.7 810.371 604.123 817.515C626.205 825.637 644.853 845.771 682.148 886.038L1487.13 1755.16L738 2449L-173.528 1464.84Z" fill="url(#paint1_linear_14_37)"/>
</g>
</g>
<path d="M2770.36 916H2650.91C2648.73 900.545 2644.27 886.818 2637.55 874.818C2630.82 862.636 2622.18 852.273 2611.64 843.727C2601.09 835.182 2588.91 828.636 2575.09 824.091C2561.45 819.545 2546.64 817.273 2530.64 817.273C2501.73 817.273 2476.55 824.455 2455.09 838.818C2433.64 853 2417 873.727 2405.18 901C2393.36 928.091 2387.45 961 2387.45 999.727C2387.45 1039.55 2393.36 1073 2405.18 1100.09C2417.18 1127.18 2433.91 1147.64 2455.36 1161.45C2476.82 1175.27 2501.64 1182.18 2529.82 1182.18C2545.64 1182.18 2560.27 1180.09 2573.73 1175.91C2587.36 1171.73 2599.45 1165.64 2610 1157.64C2620.55 1149.45 2629.27 1139.55 2636.18 1127.91C2643.27 1116.27 2648.18 1103 2650.91 1088.09L2770.36 1088.64C2767.27 1114.27 2759.55 1139 2747.18 1162.82C2735 1186.45 2718.55 1207.64 2697.82 1226.36C2677.27 1244.91 2652.73 1259.64 2624.18 1270.55C2595.82 1281.27 2563.73 1286.64 2527.91 1286.64C2478.09 1286.64 2433.55 1275.36 2394.27 1252.82C2355.18 1230.27 2324.27 1197.64 2301.55 1154.91C2279 1112.18 2267.73 1060.45 2267.73 999.727C2267.73 938.818 2279.18 887 2302.09 844.273C2325 801.545 2356.09 769 2395.36 746.636C2434.64 724.091 2478.82 712.818 2527.91 712.818C2560.27 712.818 2590.27 717.364 2617.91 726.455C2645.73 735.545 2670.36 748.818 2691.82 766.273C2713.27 783.545 2730.73 804.727 2744.18 829.818C2757.82 854.909 2766.55 883.636 2770.36 916ZM3121.5 1100.64V860.091H3237.68V1279H3126.14V1202.91H3121.77C3112.32 1227.45 3096.59 1247.18 3074.59 1262.09C3052.77 1277 3026.14 1284.45 2994.68 1284.45C2966.68 1284.45 2942.05 1278.09 2920.77 1265.36C2899.5 1252.64 2882.86 1234.55 2870.86 1211.09C2859.05 1187.64 2853.05 1159.55 2852.86 1126.82V860.091H2969.05V1106.09C2969.23 1130.82 2975.86 1150.36 2988.95 1164.73C3002.05 1179.09 3019.59 1186.27 3041.59 1186.27C3055.59 1186.27 3068.68 1183.09 3080.86 1176.73C3093.05 1170.18 3102.86 1160.55 3110.32 1147.82C3117.95 1135.09 3121.68 1119.36 3121.5 1100.64ZM3679.16 979.545L3572.8 986.091C3570.98 977 3567.07 968.818 3561.07 961.545C3555.07 954.091 3547.16 948.182 3537.34 943.818C3527.7 939.273 3516.16 937 3502.7 937C3484.7 937 3469.52 940.818 3457.16 948.455C3444.8 955.909 3438.61 965.909 3438.61 978.455C3438.61 988.455 3442.61 996.909 3450.61 1003.82C3458.61 1010.73 3472.34 1016.27 3491.8 1020.45L3567.61 1035.73C3608.34 1044.09 3638.7 1057.55 3658.7 1076.09C3678.7 1094.64 3688.7 1119 3688.7 1149.18C3688.7 1176.64 3680.61 1200.73 3664.43 1221.45C3648.43 1242.18 3626.43 1258.36 3598.43 1270C3570.61 1281.45 3538.52 1287.18 3502.16 1287.18C3446.7 1287.18 3402.52 1275.64 3369.61 1252.55C3336.89 1229.27 3317.7 1197.64 3312.07 1157.64L3426.34 1151.64C3429.8 1168.55 3438.16 1181.45 3451.43 1190.36C3464.7 1199.09 3481.7 1203.45 3502.43 1203.45C3522.8 1203.45 3539.16 1199.55 3551.52 1191.73C3564.07 1183.73 3570.43 1173.45 3570.61 1160.91C3570.43 1150.36 3565.98 1141.73 3557.25 1135C3548.52 1128.09 3535.07 1122.82 3516.89 1119.18L3444.34 1104.73C3403.43 1096.55 3372.98 1082.36 3352.98 1062.18C3333.16 1042 3323.25 1016.27 3323.25 985C3323.25 958.091 3330.52 934.909 3345.07 915.455C3359.8 896 3380.43 881 3406.98 870.455C3433.7 859.909 3464.98 854.636 3500.8 854.636C3553.7 854.636 3595.34 865.818 3625.7 888.182C3656.25 910.545 3674.07 941 3679.16 979.545ZM3984.68 860.091V947.364H3732.41V860.091H3984.68ZM3789.68 759.727H3905.86V1150.27C3905.86 1161 3907.5 1169.36 3910.77 1175.36C3914.05 1181.18 3918.59 1185.27 3924.41 1187.64C3930.41 1190 3937.32 1191.18 3945.14 1191.18C3950.59 1191.18 3956.05 1190.73 3961.5 1189.82C3966.95 1188.73 3971.14 1187.91 3974.05 1187.36L3992.32 1273.82C3986.5 1275.64 3978.32 1277.73 3967.77 1280.09C3957.23 1282.64 3944.41 1284.18 3929.32 1284.73C3901.32 1285.82 3876.77 1282.09 3855.68 1273.55C3834.77 1265 3818.5 1251.73 3806.86 1233.73C3795.23 1215.73 3789.5 1193 3789.68 1165.55V759.727ZM4245.14 1287.18C4202.77 1287.18 4166.14 1278.18 4135.23 1260.18C4104.5 1242 4080.77 1216.73 4064.05 1184.36C4047.32 1151.82 4038.95 1114.09 4038.95 1071.18C4038.95 1027.91 4047.32 990.091 4064.05 957.727C4080.77 925.182 4104.5 899.909 4135.23 881.909C4166.14 863.727 4202.77 854.636 4245.14 854.636C4287.5 854.636 4324.05 863.727 4354.77 881.909C4385.68 899.909 4409.5 925.182 4426.23 957.727C4442.95 990.091 4451.32 1027.91 4451.32 1071.18C4451.32 1114.09 4442.95 1151.82 4426.23 1184.36C4409.5 1216.73 4385.68 1242 4354.77 1260.18C4324.05 1278.18 4287.5 1287.18 4245.14 1287.18ZM4245.68 1197.18C4264.95 1197.18 4281.05 1191.73 4293.95 1180.82C4306.86 1169.73 4316.59 1154.64 4323.14 1135.55C4329.86 1116.45 4333.23 1094.73 4333.23 1070.36C4333.23 1046 4329.86 1024.27 4323.14 1005.18C4316.59 986.091 4306.86 971 4293.95 959.909C4281.05 948.818 4264.95 943.273 4245.68 943.273C4226.23 943.273 4209.86 948.818 4196.59 959.909C4183.5 971 4173.59 986.091 4166.86 1005.18C4160.32 1024.27 4157.05 1046 4157.05 1070.36C4157.05 1094.73 4160.32 1116.45 4166.86 1135.55C4173.59 1154.64 4183.5 1169.73 4196.59 1180.82C4209.86 1191.73 4226.23 1197.18 4245.68 1197.18ZM4526.86 1279V860.091H4637.59V934H4642.5C4651.23 909.455 4665.77 890.091 4686.14 875.909C4706.5 861.727 4730.86 854.636 4759.23 854.636C4787.95 854.636 4812.41 861.818 4832.59 876.182C4852.77 890.364 4866.23 909.636 4872.95 934H4877.32C4885.86 910 4901.32 890.818 4923.68 876.455C4946.23 861.909 4972.86 854.636 5003.59 854.636C5042.68 854.636 5074.41 867.091 5098.77 892C5123.32 916.727 5135.59 951.818 5135.59 997.273V1279H5019.68V1020.18C5019.68 996.909 5013.5 979.455 5001.14 967.818C4988.77 956.182 4973.32 950.364 4954.77 950.364C4933.68 950.364 4917.23 957.091 4905.41 970.545C4893.59 983.818 4887.68 1001.36 4887.68 1023.18V1279H4775.05V1017.73C4775.05 997.182 4769.14 980.818 4757.32 968.636C4745.68 956.455 4730.32 950.364 4711.23 950.364C4698.32 950.364 4686.68 953.636 4676.32 960.182C4666.14 966.545 4658.05 975.545 4652.05 987.182C4646.05 998.636 4643.05 1012.09 4643.05 1027.55V1279H4526.86ZM5407.3 1279V720.455H5630.93C5672.02 720.455 5706.3 726.545 5733.75 738.727C5761.2 750.909 5781.84 767.818 5795.66 789.455C5809.48 810.909 5816.39 835.636 5816.39 863.636C5816.39 885.455 5812.02 904.636 5803.3 921.182C5794.57 937.545 5782.57 951 5767.3 961.545C5752.2 971.909 5734.93 979.273 5715.48 983.636V989.091C5736.75 990 5756.66 996 5775.2 1007.09C5793.93 1018.18 5809.11 1033.73 5820.75 1053.73C5832.39 1073.55 5838.2 1097.18 5838.2 1124.64C5838.2 1154.27 5830.84 1180.73 5816.11 1204C5801.57 1227.09 5780.02 1245.36 5751.48 1258.82C5722.93 1272.27 5687.75 1279 5645.93 1279H5407.3ZM5525.39 1182.45H5621.66C5654.57 1182.45 5678.57 1176.18 5693.66 1163.64C5708.75 1150.91 5716.3 1134 5716.3 1112.91C5716.3 1097.45 5712.57 1083.82 5705.11 1072C5697.66 1060.18 5687.02 1050.91 5673.2 1044.18C5659.57 1037.45 5643.3 1034.09 5624.39 1034.09H5525.39V1182.45ZM5525.39 954.182H5612.93C5629.11 954.182 5643.48 951.364 5656.02 945.727C5668.75 939.909 5678.75 931.727 5686.02 921.182C5693.48 910.636 5697.2 898 5697.2 883.273C5697.2 863.091 5690.02 846.818 5675.66 834.455C5661.48 822.091 5641.3 815.909 5615.11 815.909H5525.39V954.182ZM6032.32 1286.91C6005.59 1286.91 5981.77 1282.27 5960.86 1273C5939.95 1263.55 5923.41 1249.64 5911.23 1231.27C5899.23 1212.73 5893.23 1189.64 5893.23 1162C5893.23 1138.73 5897.5 1119.18 5906.05 1103.36C5914.59 1087.55 5926.23 1074.82 5940.95 1065.18C5955.68 1055.55 5972.41 1048.27 5991.14 1043.36C6010.05 1038.45 6029.86 1035 6050.59 1033C6074.95 1030.45 6094.59 1028.09 6109.5 1025.91C6124.41 1023.55 6135.23 1020.09 6141.95 1015.55C6148.68 1011 6152.05 1004.27 6152.05 995.364V993.727C6152.05 976.455 6146.59 963.091 6135.68 953.636C6124.95 944.182 6109.68 939.455 6089.86 939.455C6068.95 939.455 6052.32 944.091 6039.95 953.364C6027.59 962.455 6019.41 973.909 6015.41 987.727L5907.95 979C5913.41 953.545 5924.14 931.545 5940.14 913C5956.14 894.273 5976.77 879.909 6002.05 869.909C6027.5 859.727 6056.95 854.636 6090.41 854.636C6113.68 854.636 6135.95 857.364 6157.23 862.818C6178.68 868.273 6197.68 876.727 6214.23 888.182C6230.95 899.636 6244.14 914.364 6253.77 932.364C6263.41 950.182 6268.23 971.545 6268.23 996.455V1279H6158.05V1220.91H6154.77C6148.05 1234 6139.05 1245.55 6127.77 1255.55C6116.5 1265.36 6102.95 1273.09 6087.14 1278.73C6071.32 1284.18 6053.05 1286.91 6032.32 1286.91ZM6065.59 1206.73C6082.68 1206.73 6097.77 1203.36 6110.86 1196.64C6123.95 1189.73 6134.23 1180.45 6141.68 1168.82C6149.14 1157.18 6152.86 1144 6152.86 1129.27V1084.82C6149.23 1087.18 6144.23 1089.36 6137.86 1091.36C6131.68 1093.18 6124.68 1094.91 6116.86 1096.55C6109.05 1098 6101.23 1099.36 6093.41 1100.64C6085.59 1101.73 6078.5 1102.73 6072.14 1103.64C6058.5 1105.64 6046.59 1108.82 6036.41 1113.18C6026.23 1117.55 6018.32 1123.45 6012.68 1130.91C6007.05 1138.18 6004.23 1147.27 6004.23 1158.18C6004.23 1174 6009.95 1186.09 6021.41 1194.45C6033.05 1202.64 6047.77 1206.73 6065.59 1206.73ZM6547.64 1287.18C6504.73 1287.18 6467.82 1278.09 6436.91 1259.91C6406.18 1241.55 6382.55 1216.09 6366 1183.55C6349.64 1151 6341.45 1113.55 6341.45 1071.18C6341.45 1028.27 6349.73 990.636 6366.27 958.273C6383 925.727 6406.73 900.364 6437.45 882.182C6468.18 863.818 6504.73 854.636 6547.09 854.636C6583.64 854.636 6615.64 861.273 6643.09 874.545C6670.55 887.818 6692.27 906.455 6708.27 930.455C6724.27 954.455 6733.09 982.636 6734.73 1015H6625.09C6622 994.091 6613.82 977.273 6600.55 964.545C6587.45 951.636 6570.27 945.182 6549 945.182C6531 945.182 6515.27 950.091 6501.82 959.909C6488.55 969.545 6478.18 983.636 6470.73 1002.18C6463.27 1020.73 6459.55 1043.18 6459.55 1069.55C6459.55 1096.27 6463.18 1119 6470.45 1137.73C6477.91 1156.45 6488.36 1170.73 6501.82 1180.55C6515.27 1190.36 6531 1195.27 6549 1195.27C6562.27 1195.27 6574.18 1192.55 6584.73 1187.09C6595.45 1181.64 6604.27 1173.73 6611.18 1163.36C6618.27 1152.82 6622.91 1140.18 6625.09 1125.45H6734.73C6732.91 1157.45 6724.18 1185.64 6708.55 1210C6693.09 1234.18 6671.73 1253.09 6644.45 1266.73C6617.18 1280.36 6584.91 1287.18 6547.64 1287.18ZM6914.39 1158.45L6914.66 1019.09H6931.57L7065.75 860.091H7199.11L7018.84 1070.64H6991.3L6914.39 1158.45ZM6809.11 1279V720.455H6925.3V1279H6809.11ZM7070.93 1279L6947.66 1096.55L7025.11 1014.45L7207.02 1279H7070.93ZM7427.59 1444.82C7389.95 1444.82 7357.68 1439.64 7330.77 1429.27C7304.05 1419.09 7282.77 1405.18 7266.95 1387.55C7251.14 1369.91 7240.86 1350.09 7236.14 1328.09L7343.59 1313.64C7346.86 1322 7352.05 1329.82 7359.14 1337.09C7366.23 1344.36 7375.59 1350.18 7387.23 1354.55C7399.05 1359.09 7413.41 1361.36 7430.32 1361.36C7455.59 1361.36 7476.41 1355.18 7492.77 1342.82C7509.32 1330.64 7517.59 1310.18 7517.59 1281.45V1204.82H7512.68C7507.59 1216.45 7499.95 1227.45 7489.77 1237.82C7479.59 1248.18 7466.5 1256.64 7450.5 1263.18C7434.5 1269.73 7415.41 1273 7393.23 1273C7361.77 1273 7333.14 1265.73 7307.32 1251.18C7281.68 1236.45 7261.23 1214 7245.95 1183.82C7230.86 1153.45 7223.32 1115.09 7223.32 1068.73C7223.32 1021.27 7231.05 981.636 7246.5 949.818C7261.95 918 7282.5 894.182 7308.14 878.364C7333.95 862.545 7362.23 854.636 7392.95 854.636C7416.41 854.636 7436.05 858.636 7451.86 866.636C7467.68 874.455 7480.41 884.273 7490.05 896.091C7499.86 907.727 7507.41 919.182 7512.68 930.455H7517.05V860.091H7632.41V1283.09C7632.41 1318.73 7623.68 1348.55 7606.23 1372.55C7588.77 1396.55 7564.59 1414.55 7533.68 1426.55C7502.95 1438.73 7467.59 1444.82 7427.59 1444.82ZM7430.05 1185.73C7448.77 1185.73 7464.59 1181.09 7477.5 1171.82C7490.59 1162.36 7500.59 1148.91 7507.5 1131.45C7514.59 1113.82 7518.14 1092.73 7518.14 1068.18C7518.14 1043.64 7514.68 1022.36 7507.77 1004.36C7500.86 986.182 7490.86 972.091 7477.77 962.091C7464.68 952.091 7448.77 947.091 7430.05 947.091C7410.95 947.091 7394.86 952.273 7381.77 962.636C7368.68 972.818 7358.77 987 7352.05 1005.18C7345.32 1023.36 7341.95 1044.36 7341.95 1068.18C7341.95 1092.36 7345.32 1113.27 7352.05 1130.91C7358.95 1148.36 7368.86 1161.91 7381.77 1171.55C7394.86 1181 7410.95 1185.73 7430.05 1185.73ZM7724.86 1279V860.091H7837.5V933.182H7841.86C7849.5 907.182 7862.32 887.545 7880.32 874.273C7898.32 860.818 7919.05 854.091 7942.5 854.091C7948.32 854.091 7954.59 854.455 7961.32 855.182C7968.05 855.909 7973.95 856.909 7979.05 858.182V961.273C7973.59 959.636 7966.05 958.182 7956.41 956.909C7946.77 955.636 7937.95 955 7929.95 955C7912.86 955 7897.59 958.727 7884.14 966.182C7870.86 973.455 7860.32 983.636 7852.5 996.727C7844.86 1009.82 7841.05 1024.91 7841.05 1042V1279H7724.86ZM8208.89 1287.18C8166.52 1287.18 8129.89 1278.18 8098.98 1260.18C8068.25 1242 8044.52 1216.73 8027.8 1184.36C8011.07 1151.82 8002.7 1114.09 8002.7 1071.18C8002.7 1027.91 8011.07 990.091 8027.8 957.727C8044.52 925.182 8068.25 899.909 8098.98 881.909C8129.89 863.727 8166.52 854.636 8208.89 854.636C8251.25 854.636 8287.8 863.727 8318.52 881.909C8349.43 899.909 8373.25 925.182 8389.98 957.727C8406.7 990.091 8415.07 1027.91 8415.07 1071.18C8415.07 1114.09 8406.7 1151.82 8389.98 1184.36C8373.25 1216.73 8349.43 1242 8318.52 1260.18C8287.8 1278.18 8251.25 1287.18 8208.89 1287.18ZM8209.43 1197.18C8228.7 1197.18 8244.8 1191.73 8257.7 1180.82C8270.61 1169.73 8280.34 1154.64 8286.89 1135.55C8293.61 1116.45 8296.98 1094.73 8296.98 1070.36C8296.98 1046 8293.61 1024.27 8286.89 1005.18C8280.34 986.091 8270.61 971 8257.7 959.909C8244.8 948.818 8228.7 943.273 8209.43 943.273C8189.98 943.273 8173.61 948.818 8160.34 959.909C8147.25 971 8137.34 986.091 8130.61 1005.18C8124.07 1024.27 8120.8 1046 8120.8 1070.36C8120.8 1094.73 8124.07 1116.45 8130.61 1135.55C8137.34 1154.64 8147.25 1169.73 8160.34 1180.82C8173.61 1191.73 8189.98 1197.18 8209.43 1197.18ZM8759.25 1100.64V860.091H8875.43V1279H8763.89V1202.91H8759.52C8750.07 1227.45 8734.34 1247.18 8712.34 1262.09C8690.52 1277 8663.89 1284.45 8632.43 1284.45C8604.43 1284.45 8579.8 1278.09 8558.52 1265.36C8537.25 1252.64 8520.61 1234.55 8508.61 1211.09C8496.8 1187.64 8490.8 1159.55 8490.61 1126.82V860.091H8606.8V1106.09C8606.98 1130.82 8613.61 1150.36 8626.7 1164.73C8639.8 1179.09 8657.34 1186.27 8679.34 1186.27C8693.34 1186.27 8706.43 1183.09 8718.61 1176.73C8730.8 1170.18 8740.61 1160.55 8748.07 1147.82C8755.7 1135.09 8759.43 1119.36 8759.25 1100.64ZM9084.55 1036.82V1279H8968.36V860.091H9079.09V934H9084C9093.27 909.636 9108.82 890.364 9130.64 876.182C9152.45 861.818 9178.91 854.636 9210 854.636C9239.09 854.636 9264.45 861 9286.09 873.727C9307.73 886.455 9324.55 904.636 9336.55 928.273C9348.55 951.727 9354.55 979.727 9354.55 1012.27V1279H9238.36V1033C9238.55 1007.36 9232 987.364 9218.73 973C9205.45 958.455 9187.18 951.182 9163.91 951.182C9148.27 951.182 9134.45 954.545 9122.45 961.273C9110.64 968 9101.36 977.818 9094.64 990.727C9088.09 1003.45 9084.73 1018.82 9084.55 1036.82ZM9600.48 1285.82C9568.66 1285.82 9539.84 1277.64 9514.02 1261.27C9488.39 1244.73 9468.02 1220.45 9452.93 1188.45C9438.02 1156.27 9430.57 1116.82 9430.57 1070.09C9430.57 1022.09 9438.3 982.182 9453.75 950.364C9469.2 918.364 9489.75 894.455 9515.39 878.636C9541.2 862.636 9569.48 854.636 9600.2 854.636C9623.66 854.636 9643.2 858.636 9658.84 866.636C9674.66 874.455 9687.39 884.273 9697.02 896.091C9706.84 907.727 9714.3 919.182 9719.39 930.455H9722.93V720.455H9838.84V1279H9724.3V1211.91H9719.39C9713.93 1223.55 9706.2 1235.09 9696.2 1246.55C9686.39 1257.82 9673.57 1267.18 9657.75 1274.64C9642.11 1282.09 9623.02 1285.82 9600.48 1285.82ZM9637.3 1193.36C9656.02 1193.36 9671.84 1188.27 9684.75 1178.09C9697.84 1167.73 9707.84 1153.27 9714.75 1134.73C9721.84 1116.18 9725.39 1094.45 9725.39 1069.55C9725.39 1044.64 9721.93 1023 9715.02 1004.64C9708.11 986.273 9698.11 972.091 9685.02 962.091C9671.93 952.091 9656.02 947.091 9637.3 947.091C9618.2 947.091 9602.11 952.273 9589.02 962.636C9575.93 973 9566.02 987.364 9559.3 1005.73C9552.57 1024.09 9549.2 1045.36 9549.2 1069.55C9549.2 1093.91 9552.57 1115.45 9559.3 1134.18C9566.2 1152.73 9576.11 1167.27 9589.02 1177.82C9602.11 1188.18 9618.2 1193.36 9637.3 1193.36Z" fill="white"/>
</g>
<defs>
<filter id="filter0_d_14_37" x="-64.3" y="292.7" width="2125.6" height="1486.6" filterUnits="userSpaceOnUse" color-interpolation-filters="sRGB">
<feFlood flood-opacity="0" result="BackgroundImageFix"/>
<feColorMatrix in="SourceAlpha" type="matrix" values="0 0 0 0 0 0 0 0 0 0 0 0 0 0 0 0 0 0 127 0" result="hardAlpha"/>
<feMorphology radius="32" operator="dilate" in="SourceAlpha" result="effect1_dropShadow_14_37"/>
<feOffset dy="4"/>
<feGaussianBlur stdDeviation="39.65"/>
<feComposite in2="hardAlpha" operator="out"/>
<feColorMatrix type="matrix" values="0 0 0 0 0 0 0 0 0 0 0 0 0 0 0 0 0 0 0.4 0"/>
<feBlend mode="normal" in2="BackgroundImageFix" result="effect1_dropShadow_14_37"/>
<feBlend mode="normal" in="SourceGraphic" in2="effect1_dropShadow_14_37" result="shape"/>
</filter>
<filter id="filter1_d_14_37" x="806.423" y="892.468" width="1173.56" height="1163.23" filterUnits="userSpaceOnUse" color-interpolation-filters="sRGB">
<feFlood flood-opacity="0" result="BackgroundImageFix"/>
<feColorMatrix in="SourceAlpha" type="matrix" values="0 0 0 0 0 0 0 0 0 0 0 0 0 0 0 0 0 0 127 0" result="hardAlpha"/>
<feMorphology radius="11" operator="dilate" in="SourceAlpha" result="effect1_dropShadow_14_37"/>
<feOffset dx="35" dy="19"/>
<feGaussianBlur stdDeviation="49.35"/>
<feComposite in2="hardAlpha" operator="out"/>
<feColorMatrix type="matrix" values="0 0 0 0 0 0 0 0 0 0 0 0 0 0 0 0 0 0 0.25 0"/>
<feBlend mode="normal" in2="BackgroundImageFix" result="effect1_dropShadow_14_37"/>
<feBlend mode="normal" in="SourceGraphic" in2="effect1_dropShadow_14_37" result="shape"/>
</filter>
<filter id="filter2_d_14_37" x="-272.528" y="683.491" width="1912.66" height="1889.51" filterUnits="userSpaceOnUse" color-interpolation-filters="sRGB">
<feFlood flood-opacity="0" result="BackgroundImageFix"/>
<feColorMatrix in="SourceAlpha" type="matrix" values="0 0 0 0 0 0 0 0 0 0 0 0 0 0 0 0 0 0 127 0" result="hardAlpha"/>
<feMorphology radius="14" operator="dilate" in="SourceAlpha" result="effect1_dropShadow_14_37"/>
<feOffset dx="27" dy="-2"/>
<feGaussianBlur stdDeviation="56"/>
<feComposite in2="hardAlpha" operator="out"/>
<feColorMatrix type="matrix" values="0 0 0 0 0 0 0 0 0 0 0 0 0 0 0 0 0 0 0.25 0"/>
<feBlend mode="normal" in2="BackgroundImageFix" result="effect1_dropShadow_14_37"/>
<feBlend mode="normal" in="SourceGraphic" in2="effect1_dropShadow_14_37" result="shape"/>
</filter>
<linearGradient id="paint0_linear_14_37" x1="1209.8" y1="400" x2="859.095" y2="1670.98" gradientUnits="userSpaceOnUse">
<stop stop-color="#158EF0"/>
<stop offset="0.9999" stop-color="#3016A1"/>
</linearGradient>
<linearGradient id="paint1_linear_14_37" x1="693.6" y1="941.523" x2="337.258" y2="2093.86" gradientUnits="userSpaceOnUse">
<stop stop-color="#0A2A94"/>
<stop offset="1" stop-color="#0D2F9F"/>
</linearGradient>
<clipPath id="clip0_14_37">
<rect width="9952" height="2000" fill="white"/>
</clipPath>
</defs>
</svg>
